<svg width="446" height="446" viewBox="0 0 446 446" fill="none" xmlns="http://www.w3.org/2000/svg">
<circle cx="222.913" cy="222.913" r="222.913" fill="#0B0D1A"/>
<path d="M177.159 73.3164L181.959 70.0567C182.503 69.6945 182.684 69.0606 182.503 68.4268L180.963 64.4427C186.488 61.2735 192.465 59.7342 199.258 60.368C203.605 60.8208 207.5 63.5372 209.402 67.4308C212.209 73.3164 216.738 78.2965 222.444 82.7333L221.991 83.7294C219.002 82.2806 215.742 80.6507 212.753 79.202C210.941 78.387 208.315 77.1194 206.504 76.2139C203.334 74.6746 199.983 73.6786 196.541 73.2258V73.4069C197.356 74.1313 198.352 74.7651 199.349 75.399C202.337 77.2099 205.598 78.387 208.858 79.4736C213.025 81.0129 217.644 82.5522 221.81 83.9105L221.176 85.1781C211.938 84.8159 205.236 85.812 200.798 87.8946C196.541 89.8866 191.469 89.2528 187.756 86.3552C183.59 83.0955 180.148 78.4776 177.159 73.1353V73.3164Z" fill="#FBBEB4"/>
<path d="M220.995 36.9162L225.523 40.4476C225.976 40.8098 226.701 40.8098 227.244 40.4476L230.595 37.7312C235.305 41.9869 238.656 47.2387 240.105 53.8487C241.101 58.1949 239.652 62.6318 236.482 65.7104C231.772 70.2378 228.421 76.1234 225.885 82.8239H224.799C225.251 79.3831 225.795 75.7612 226.248 72.5015C226.519 70.5094 226.791 67.6119 227.153 65.6199C227.606 62.179 227.516 58.6477 226.882 55.2069H226.61C226.157 56.2934 225.885 57.4706 225.614 58.5571C224.799 61.9074 224.708 65.4388 224.708 68.8796C224.618 73.3164 224.527 78.206 224.527 82.6428L223.078 82.4617C220.542 73.5881 217.553 67.5214 214.112 63.8995C210.851 60.4586 209.945 55.388 211.576 50.9511C213.387 45.971 216.738 41.3531 220.904 36.8257L220.995 36.9162Z" fill="#FBBEB4"/>
<path d="M269.177 67.3402L267.184 72.773C267.003 73.4069 267.184 74.0407 267.727 74.4029L271.35 76.7571C268.724 82.5522 264.829 87.3512 258.942 90.792C255.138 93.0557 250.429 93.0557 246.534 91.0637C240.828 87.985 234.126 86.6268 226.971 86.2646L226.79 85.2686C230.051 84.7253 233.673 84.0915 236.934 83.4577C238.926 83.0955 241.734 82.5522 243.727 82.19C247.168 81.5562 250.429 80.379 253.508 78.7492V78.4775C252.24 78.4775 251.063 78.4775 249.885 78.5681C246.353 78.8397 243.093 79.8358 239.742 80.9223C235.485 82.19 230.866 83.5482 226.609 84.997L226.337 83.5482C233.945 78.387 238.836 73.6785 241.281 69.3322C243.545 65.167 248.074 62.7222 252.783 62.9033C258.127 63.0844 263.561 64.8048 269.086 67.4307L269.177 67.3402Z" fill="#FBBEB4"/>
<path d="M255.23 122.574L249.434 122.393C248.8 122.393 248.256 122.755 248.075 123.389L246.988 127.554C240.648 126.921 234.852 124.566 229.78 120.13C226.429 117.232 224.98 112.795 225.705 108.449C226.882 102.02 226.157 95.3195 224.165 88.3473L225.07 87.804C226.61 90.7016 228.331 93.9613 229.871 96.8588C230.867 98.6698 232.226 101.115 233.222 102.926C234.852 106.004 237.026 108.811 239.562 111.165H239.743C239.38 109.898 239.018 108.811 238.565 107.725C237.207 104.465 235.214 101.658 233.222 98.8509C230.686 95.1384 227.969 91.2448 225.342 87.6229L226.61 86.8986C233.856 92.6031 239.924 95.7722 244.724 96.6777C249.343 97.5832 253.147 101.024 254.415 105.642C255.864 110.713 255.864 116.508 255.139 122.574H255.23Z" fill="#FBBEB4"/>
<path d="M198.352 126.287L196.813 120.763C196.632 120.13 196.088 119.767 195.454 119.767L191.198 119.948C189.93 113.701 190.292 107.543 192.918 101.296C194.639 97.221 198.443 94.414 202.79 93.7802C209.221 92.8747 215.38 90.1583 221.448 86.1742L222.263 86.8986C219.908 89.2528 217.372 91.8787 215.108 94.3235C213.749 95.7722 211.757 97.9454 210.308 99.3942C207.953 101.929 205.87 104.827 204.421 107.996L204.602 108.177C205.598 107.543 206.504 106.729 207.409 106.004C210.126 103.74 212.119 100.933 214.202 98.1265C216.919 94.5951 219.817 90.7016 222.444 87.1702L223.531 88.1662C220.361 96.8588 219.183 103.559 219.817 108.449C220.451 113.157 218.278 117.775 214.293 120.401C209.855 123.299 204.421 125.2 198.443 126.377L198.352 126.287Z" fill="#FBBEB4"/>
<path d="M203.307 177.074H173.426L172.883 174.031H203.307V161.21L214.172 162.405C213.955 163.817 212.977 164.904 210.261 165.339V174.031H234.057V161.21L244.922 162.405C244.814 163.817 243.836 164.904 241.119 165.339V174.031H257.635L262.742 167.403C262.742 167.403 268.61 172.184 271.978 175.444C271.761 176.53 270.783 177.074 269.262 177.074H241.119V185.875C241.119 186.527 238.62 187.939 235.252 188.048H234.057V177.074H210.261V186.309C210.261 187.179 207.218 188.265 204.393 188.265H203.307V177.074ZM173.209 233.793L171.796 232.38C182.336 222.927 193.745 206.737 200.699 189.026L211.239 193.481C210.695 194.676 209.283 195.545 207.001 195.219C204.611 199.783 201.894 204.129 199.069 208.258L205.262 210.649C204.936 211.518 203.85 212.279 201.894 212.496V258.675C201.785 259.218 198.852 260.631 196.135 260.631H194.94V213.691C188.312 222.058 180.815 228.903 173.209 233.793ZM269.37 233.249L269.588 250.309C272.195 251.178 272.847 252.047 272.847 253.568C272.847 256.937 268.936 258.241 249.703 258.241L236.556 258.132C227.103 258.132 224.821 256.285 224.821 249.874V189.569L235.361 190.764C235.252 192.177 234.165 193.263 231.775 193.589V221.08C240.467 215.104 250.573 205.976 258.505 196.197L267.306 203.369C266.436 204.347 265.35 204.564 262.959 203.695C253.506 212.387 241.989 219.667 231.775 224.013V248.353C231.775 250.743 232.535 251.612 237.534 251.612H249.921C255.679 251.612 260.026 251.504 261.764 251.286C263.177 251.178 263.72 250.743 264.263 249.657C265.024 247.809 266.545 240.747 267.958 233.249H269.37Z" fill="#FBBEB4"/>
<path d="M198.852 323.906V338.792H246.987V323.906H198.852ZM246.987 288.483H198.852V302.826H246.987V288.483ZM246.987 320.646V305.977H198.852V320.646H246.987ZM268.936 353.243L269.153 368.564C271.652 369.324 271.978 370.194 271.978 371.606C271.978 374.866 268.827 376.17 251.55 376.17H239.489C230.906 376.17 229.167 374.54 229.167 369.107V342.052H216.889C213.52 364 201.133 373.562 173.426 378.343L172.991 376.605C196.896 370.085 206.24 360.741 208.848 342.052H198.852V346.398C198.852 347.158 196.027 348.788 192.984 348.788H191.789V281.747L199.504 285.224H245.9L249.921 280.769L258.722 287.614C257.961 288.483 256.223 289.353 254.05 289.896V345.311C253.941 345.963 250.573 347.702 248.073 347.702H246.987V342.052H236.121V342.16V367.695C236.121 369.324 236.556 369.65 240.685 369.65H251.659C256.549 369.65 260.46 369.65 261.982 369.542C263.285 369.433 263.611 369.107 264.046 368.021C265.024 366.065 266.111 359.871 267.414 353.243H268.936Z" fill="#FBBEB4"/>
</svg>
